solid OpenSCAD_Model
  facet normal 0.866025 -0.5 0
    outer loop
      vertex 33.5 -58.0237 25
      vertex 67 0 0
      vertex 67 0 25
    endloop
  endfacet
  facet normal 0.866025 -0.5 0
    outer loop
      vertex 67 0 0
      vertex 33.5 -58.0237 25
      vertex 33.5 -58.0237 0
    endloop
  endfacet
  facet normal 0 0 -1
    outer loop
      vertex 33.5 -58.0237 0
      vertex 33.5 58.0237 0
      vertex 67 0 0
    endloop
  endfacet
  facet normal 0 0 -1
    outer loop
      vertex -33.5 -58.0237 0
      vertex 33.5 58.0237 0
      vertex 33.5 -58.0237 0
    endloop
  endfacet
  facet normal 0 0 -1
    outer loop
      vertex -33.5 -58.0237 0
      vertex -33.5 58.0237 0
      vertex 33.5 58.0237 0
    endloop
  endfacet
  facet normal 0 -0 -1
    outer loop
      vertex -33.5 58.0237 0
      vertex -33.5 -58.0237 0
      vertex -67 0 0
    endloop
  endfacet
  facet normal 0.866025 0.5 0
    outer loop
      vertex 67 0 25
      vertex 33.5 58.0237 0
      vertex 33.5 58.0237 25
    endloop
  endfacet
  facet normal 0.866025 0.5 0
    outer loop
      vertex 33.5 58.0237 0
      vertex 67 0 25
      vertex 67 0 0
    endloop
  endfacet
  facet normal -0.866025 -0.5 0
    outer loop
      vertex -33.5 -58.0237 0
      vertex -67 0 25
      vertex -67 0 0
    endloop
  endfacet
  facet normal -0.866025 -0.5 0
    outer loop
      vertex -67 0 25
      vertex -33.5 -58.0237 0
      vertex -33.5 -58.0237 25
    endloop
  endfacet
  facet normal 0 0 1
    outer loop
      vertex 28 48.4974 6
      vertex 28 -48.4974 6
      vertex 56 0 6
    endloop
  endfacet
  facet normal -0 0 1
    outer loop
      vertex -28 48.4974 6
      vertex 28 -48.4974 6
      vertex 28 48.4974 6
    endloop
  endfacet
  facet normal 0 0 1
    outer loop
      vertex -28 48.4974 6
      vertex -28 -48.4974 6
      vertex 28 -48.4974 6
    endloop
  endfacet
  facet normal 0 -0 1
    outer loop
      vertex -28 -48.4974 6
      vertex -28 48.4974 6
      vertex -56 0 6
    endloop
  endfacet
  facet normal 0 -1 0
    outer loop
      vertex -33.5 -58.0237 0
      vertex 33.5 -58.0237 25
      vertex -33.5 -58.0237 25
    endloop
  endfacet
  facet normal 0 -1 -0
    outer loop
      vertex 33.5 -58.0237 25
      vertex -33.5 -58.0237 0
      vertex 33.5 -58.0237 0
    endloop
  endfacet
  facet normal -0.866025 0.5 0
    outer loop
      vertex -67 0 0
      vertex -33.5 58.0237 25
      vertex -33.5 58.0237 0
    endloop
  endfacet
  facet normal -0.866025 0.5 0
    outer loop
      vertex -33.5 58.0237 25
      vertex -67 0 0
      vertex -67 0 25
    endloop
  endfacet
  facet normal 0 1 -0
    outer loop
      vertex 33.5 58.0237 0
      vertex -33.5 58.0237 25
      vertex 33.5 58.0237 25
    endloop
  endfacet
  facet normal 0 1 0
    outer loop
      vertex -33.5 58.0237 25
      vertex 33.5 58.0237 0
      vertex -33.5 58.0237 0
    endloop
  endfacet
  facet normal 0 0 1
    outer loop
      vertex 33.5 58.0237 25
      vertex 61 0 25
      vertex 67 0 25
    endloop
  endfacet
  facet normal 0 0 1
    outer loop
      vertex 33.5 58.0237 25
      vertex 30.5 52.8275 25
      vertex 61 0 25
    endloop
  endfacet
  facet normal 0 0 1
    outer loop
      vertex 33.5 58.0237 25
      vertex -30.5 52.8275 25
      vertex 30.5 52.8275 25
    endloop
  endfacet
  facet normal -0 0 1
    outer loop
      vertex -33.5 58.0237 25
      vertex -30.5 52.8275 25
      vertex 33.5 58.0237 25
    endloop
  endfacet
  facet normal 0 0 1
    outer loop
      vertex -33.5 58.0237 25
      vertex -61 0 25
      vertex -30.5 52.8275 25
    endloop
  endfacet
  facet normal 0 -0 1
    outer loop
      vertex -61 0 25
      vertex -33.5 58.0237 25
      vertex -67 0 25
    endloop
  endfacet
  facet normal -0 0 1
    outer loop
      vertex 61 0 25
      vertex 33.5 -58.0237 25
      vertex 67 0 25
    endloop
  endfacet
  facet normal -0 0 1
    outer loop
      vertex 30.5 -52.8275 25
      vertex 33.5 -58.0237 25
      vertex 61 0 25
    endloop
  endfacet
  facet normal -0 0 1
    outer loop
      vertex -30.5 -52.8275 25
      vertex 33.5 -58.0237 25
      vertex 30.5 -52.8275 25
    endloop
  endfacet
  facet normal 0 0 1
    outer loop
      vertex -30.5 -52.8275 25
      vertex -33.5 -58.0237 25
      vertex 33.5 -58.0237 25
    endloop
  endfacet
  facet normal 0 0 1
    outer loop
      vertex -61 0 25
      vertex -33.5 -58.0237 25
      vertex -30.5 -52.8275 25
    endloop
  endfacet
  facet normal 0 0 1
    outer loop
      vertex -33.5 -58.0237 25
      vertex -61 0 25
      vertex -67 0 25
    endloop
  endfacet
  facet normal 0.866025 0.5 0
    outer loop
      vertex -30.5 -52.8275 25
      vertex -61 0 15
      vertex -61 0 25
    endloop
  endfacet
  facet normal 0.866025 0.5 0
    outer loop
      vertex -61 0 15
      vertex -30.5 -52.8275 25
      vertex -30.5 -52.8275 15
    endloop
  endfacet
  facet normal 0.866025 -0.5 0
    outer loop
      vertex -61 0 25
      vertex -30.5 52.8275 15
      vertex -30.5 52.8275 25
    endloop
  endfacet
  facet normal 0.866025 -0.5 0
    outer loop
      vertex -30.5 52.8275 15
      vertex -61 0 25
      vertex -61 0 15
    endloop
  endfacet
  facet normal 0 -1 0
    outer loop
      vertex -30.5 52.8275 15
      vertex 30.5 52.8275 25
      vertex -30.5 52.8275 25
    endloop
  endfacet
  facet normal 0 -1 -0
    outer loop
      vertex 30.5 52.8275 25
      vertex -30.5 52.8275 15
      vertex 30.5 52.8275 15
    endloop
  endfacet
  facet normal -0.866025 -0.5 0
    outer loop
      vertex 61 0 15
      vertex 30.5 52.8275 25
      vertex 30.5 52.8275 15
    endloop
  endfacet
  facet normal -0.866025 -0.5 0
    outer loop
      vertex 30.5 52.8275 25
      vertex 61 0 15
      vertex 61 0 25
    endloop
  endfacet
  facet normal -0.866025 0.5 0
    outer loop
      vertex 30.5 -52.8275 15
      vertex 61 0 25
      vertex 61 0 15
    endloop
  endfacet
  facet normal -0.866025 0.5 0
    outer loop
      vertex 61 0 25
      vertex 30.5 -52.8275 15
      vertex 30.5 -52.8275 25
    endloop
  endfacet
  facet normal 0 1 -0
    outer loop
      vertex 30.5 -52.8275 15
      vertex -30.5 -52.8275 25
      vertex 30.5 -52.8275 25
    endloop
  endfacet
  facet normal 0 1 0
    outer loop
      vertex -30.5 -52.8275 25
      vertex 30.5 -52.8275 15
      vertex -30.5 -52.8275 15
    endloop
  endfacet
  facet normal 0 0 1
    outer loop
      vertex 30.5 52.8275 15
      vertex 56 0 15
      vertex 61 0 15
    endloop
  endfacet
  facet normal 0 0 1
    outer loop
      vertex 30.5 52.8275 15
      vertex 28 48.4974 15
      vertex 56 0 15
    endloop
  endfacet
  facet normal 0 0 1
    outer loop
      vertex 30.5 52.8275 15
      vertex -28 48.4974 15
      vertex 28 48.4974 15
    endloop
  endfacet
  facet normal -0 0 1
    outer loop
      vertex -30.5 52.8275 15
      vertex -28 48.4974 15
      vertex 30.5 52.8275 15
    endloop
  endfacet
  facet normal 0 0 1
    outer loop
      vertex -30.5 52.8275 15
      vertex -56 0 15
      vertex -28 48.4974 15
    endloop
  endfacet
  facet normal 0 -0 1
    outer loop
      vertex -56 0 15
      vertex -30.5 52.8275 15
      vertex -61 0 15
    endloop
  endfacet
  facet normal -0 0 1
    outer loop
      vertex 56 0 15
      vertex 30.5 -52.8275 15
      vertex 61 0 15
    endloop
  endfacet
  facet normal -0 0 1
    outer loop
      vertex 28 -48.4974 15
      vertex 30.5 -52.8275 15
      vertex 56 0 15
    endloop
  endfacet
  facet normal -0 0 1
    outer loop
      vertex -28 -48.4974 15
      vertex 30.5 -52.8275 15
      vertex 28 -48.4974 15
    endloop
  endfacet
  facet normal 0 0 1
    outer loop
      vertex -28 -48.4974 15
      vertex -30.5 -52.8275 15
      vertex 30.5 -52.8275 15
    endloop
  endfacet
  facet normal 0 0 1
    outer loop
      vertex -56 0 15
      vertex -30.5 -52.8275 15
      vertex -28 -48.4974 15
    endloop
  endfacet
  facet normal 0 0 1
    outer loop
      vertex -30.5 -52.8275 15
      vertex -56 0 15
      vertex -61 0 15
    endloop
  endfacet
  facet normal 0.866025 0.5 0
    outer loop
      vertex -28 -48.4974 15
      vertex -56 0 6
      vertex -56 0 15
    endloop
  endfacet
  facet normal 0.866025 0.5 0
    outer loop
      vertex -56 0 6
      vertex -28 -48.4974 15
      vertex -28 -48.4974 6
    endloop
  endfacet
  facet normal 0.866025 -0.5 0
    outer loop
      vertex -56 0 15
      vertex -28 48.4974 6
      vertex -28 48.4974 15
    endloop
  endfacet
  facet normal 0.866025 -0.5 0
    outer loop
      vertex -28 48.4974 6
      vertex -56 0 15
      vertex -56 0 6
    endloop
  endfacet
  facet normal 0 -1 0
    outer loop
      vertex -28 48.4974 6
      vertex 28 48.4974 15
      vertex -28 48.4974 15
    endloop
  endfacet
  facet normal 0 -1 -0
    outer loop
      vertex 28 48.4974 15
      vertex -28 48.4974 6
      vertex 28 48.4974 6
    endloop
  endfacet
  facet normal -0.866025 -0.5 0
    outer loop
      vertex 56 0 6
      vertex 28 48.4974 15
      vertex 28 48.4974 6
    endloop
  endfacet
  facet normal -0.866025 -0.5 0
    outer loop
      vertex 28 48.4974 15
      vertex 56 0 6
      vertex 56 0 15
    endloop
  endfacet
  facet normal -0.866025 0.5 0
    outer loop
      vertex 28 -48.4974 6
      vertex 56 0 15
      vertex 56 0 6
    endloop
  endfacet
  facet normal -0.866025 0.5 0
    outer loop
      vertex 56 0 15
      vertex 28 -48.4974 6
      vertex 28 -48.4974 15
    endloop
  endfacet
  facet normal 0 1 -0
    outer loop
      vertex 28 -48.4974 6
      vertex -28 -48.4974 15
      vertex 28 -48.4974 15
    endloop
  endfacet
  facet normal 0 1 0
    outer loop
      vertex -28 -48.4974 15
      vertex 28 -48.4974 6
      vertex -28 -48.4974 6
    endloop
  endfacet
endsolid OpenSCAD_Model
